<svg width="100" height="100" viewBox="0 0 100 100" fill="none" xmlns="http://www.w3.org/2000/svg">
<path d="M83.3333 83.3333H66.6667V66.6667H83.3333V83.3333ZM58.3333 41.6667H41.6667V58.3333H58.3333V41.6667ZM83.3333 41.6667H66.6667V58.3333H83.3333V41.6667ZM33.3333 66.6667H16.6667V83.3333H33.3333V66.6667ZM58.3333 66.6667H41.6667V83.3333H58.3333V66.6667ZM33.3333 41.6667H16.6667V58.3333H33.3333V41.6667ZM100 8.33333V100H0V8.33333H12.5V12.5C12.5 17.0958 16.2375 20.8333 20.8333 20.8333C25.4292 20.8333 29.1667 17.0958 29.1667 12.5V8.33333H70.8333V12.5C70.8333 17.0958 74.5708 20.8333 79.1667 20.8333C83.7625 20.8333 87.5 17.0958 87.5 12.5V8.33333H100ZM91.6667 33.3333H8.33333V91.6667H91.6667V33.3333ZM83.3333 4.16667C83.3333 1.86667 81.4708 0 79.1667 0C76.8625 0 75 1.86667 75 4.16667V12.5C75 14.8 76.8625 16.6667 79.1667 16.6667C81.4708 16.6667 83.3333 14.8 83.3333 12.5V4.16667ZM25 12.5C25 14.8 23.1375 16.6667 20.8333 16.6667C18.5292 16.6667 16.6667 14.8 16.6667 12.5V4.16667C16.6667 1.86667 18.5292 0 20.8333 0C23.1375 0 25 1.86667 25 4.16667V12.5Z"/>
</svg>
