<svg viewBox="0 0 50 50" fill = '#cd486b' xmlns="http://www.w3.org/2000/svg">
<path d="M31.7354 11.4333C29.9792 11.3542 29.45 11.3375 25 11.3375C20.55 11.3375 20.0229 11.3542 18.2667 11.4333C13.7458 11.6396 11.6396 13.7812 11.4354 18.2646C11.3542 20.0229 11.3354 20.55 11.3354 25C11.3354 29.45 11.3542 29.9771 11.4333 31.7354C11.6396 36.2104 13.7375 38.3604 18.2646 38.5667C20.0208 38.6458 20.55 38.6646 25 38.6646C29.4521 38.6646 29.9792 38.6479 31.7354 38.5687C36.2562 38.3625 38.3604 36.2167 38.5667 31.7375C38.6458 29.9792 38.6625 29.4521 38.6625 25.0021C38.6625 20.5521 38.6458 20.025 38.5667 18.2687C38.3604 13.7833 36.2521 11.6396 31.7354 11.4333ZM25 33.5583C20.2729 33.5583 16.4417 29.7271 16.4417 25C16.4417 20.2729 20.275 16.4417 25 16.4417C29.725 16.4417 33.5583 20.2729 33.5583 25C33.5583 29.7271 29.7271 33.5583 25 33.5583ZM33.8979 18.1042C32.7937 18.1042 31.8979 17.2083 31.8979 16.1042C31.8979 15 32.7937 14.1042 33.8979 14.1042C35.0021 14.1042 35.8979 15 35.8979 16.1042C35.8979 17.2083 35.0021 18.1042 33.8979 18.1042ZM30.5562 25C30.5562 28.0687 28.0687 30.5562 25 30.5562C21.9312 30.5562 19.4438 28.0687 19.4438 25C19.4438 21.9312 21.9312 19.4438 25 19.4438C28.0687 19.4438 30.5562 21.9312 30.5562 25ZM39.5833 0H10.4167C4.66458 0 0 4.66458 0 10.4167V39.5833C0 45.3354 4.66458 50 10.4167 50H39.5833C45.3375 50 50 45.3354 50 39.5833V10.4167C50 4.66458 45.3375 0 39.5833 0V0ZM41.5667 31.8708C41.2917 37.9312 37.9187 41.2896 31.8729 41.5667C30.0937 41.6479 29.5271 41.6667 25 41.6667C20.4729 41.6667 19.9083 41.6479 18.1292 41.5667C12.0708 41.2896 8.7125 37.925 8.43333 31.8708C8.35208 30.0938 8.33333 29.5271 8.33333 25C8.33333 20.475 8.35208 19.9062 8.43333 18.1292C8.7125 12.0708 12.075 8.71042 18.1292 8.43542C19.9083 8.35208 20.4729 8.33333 25 8.33333C29.5271 8.33333 30.0937 8.35208 31.8729 8.43333C37.9312 8.71042 41.2958 12.0813 41.5667 18.1271C41.6479 19.9062 41.6667 20.475 41.6667 25C41.6667 29.5271 41.6479 30.0938 41.5667 31.8708Z" />
</svg>
