<svg width="96" height="100" viewBox="0 0 96 100" fill="none" xmlns="http://www.w3.org/2000/svg">
<path d="M85.168 41.396C83.728 25.764 74.376 15.076 60.368 11.148C56.872 10.164 49.9 8.66 56 0C36.52 0 13.084 16.94 10.832 41.396C3.396 42.056 0 49.08 0 57.252C0 64.272 3.9 73.12 12.416 76.816C24.156 98.3 42.552 100 48 100C53.448 100 71.844 98.3 83.584 76.816C92.1 73.116 96 64.272 96 57.252C96 49.176 92.636 42.06 85.168 41.396ZM79.468 69.836C78.484 70.168 77.668 70.872 77.192 71.8C67.568 90.544 52.416 92 48 92C43.584 92 28.432 90.544 18.808 71.8C18.332 70.876 17.516 70.172 16.532 69.836C6.74 66.52 6.32 52.38 10.32 49.788C11.26 49.18 12.444 49.324 13.004 49.576C15.648 50.748 18.628 48.812 18.628 45.92C18.628 41.844 19.232 38.168 20.348 34.892C24.716 24.652 32.832 40.348 48 40.348C63.172 40.348 71.288 24.648 75.652 34.896C76.764 38.172 77.372 41.848 77.372 45.92C77.372 48.82 80.356 50.748 82.996 49.576C83.556 49.324 84.74 49.176 85.68 49.788C89.68 52.38 89.26 66.52 79.468 69.836ZM66 54C66 57.312 63.76 60 61 60C58.24 60 56 57.312 56 54C56 50.688 58.24 48 61 48C63.76 48 66 50.688 66 54ZM35 60C32.24 60 30 57.312 30 54C30 50.688 32.24 48 35 48C37.76 48 40 50.688 40 54C40 57.312 37.76 60 35 60ZM36 72H60C60 72 56.94 81.416 48 81.416C39.388 81.416 36 72 36 72Z" fill="#FFCD2E"/>
</svg>
