<svg width="92" height="100" viewBox="0 0 92 100" fill="none" xmlns="http://www.w3.org/2000/svg">
<path d="M66.8332 50C53.029 50 41.8332 61.1958 41.8332 75C41.8332 88.8042 53.029 100 66.8332 100C80.6373 100 91.8332 88.8042 91.8332 75C91.8332 61.1958 80.6373 50 66.8332 50ZM68.9165 85.3083V87.5H66.8332V85.4208C64.6748 85.3833 62.4457 84.8708 60.5832 83.9083L61.5332 80.4833C63.5248 81.2583 66.1748 82.0792 68.2498 81.6083C70.6415 81.0667 71.1332 78.6042 68.4873 77.4208C66.5498 76.5167 60.6165 75.7458 60.6165 70.6625C60.6165 67.825 62.7832 65.2792 66.8332 64.725V62.5H68.9165V64.6208C70.4248 64.6625 72.1165 64.925 74.004 65.4958L73.2498 68.9292C71.6498 68.3667 69.8832 67.8583 68.1582 67.9625C65.0582 68.1417 64.7832 70.8292 66.9498 71.9542C70.5165 73.6292 75.1665 74.8708 75.1665 79.3417C75.1707 82.9167 72.3665 84.8208 68.9165 85.3083ZM75.6832 42.8958C80.3998 41.9667 84.6915 40.2875 87.6665 37.9083V40.625C87.6665 42.7042 86.0582 44.6042 83.4707 46.1583C81.0498 44.7542 78.4373 43.6583 75.6832 42.8958ZM66.8332 18.75C77.9707 18.75 87.6665 14.5542 87.6665 9.375C87.6665 4.19583 77.9707 0 66.8332 0C55.6998 0 45.9998 4.19583 45.9998 9.375C45.9998 14.5542 55.6998 18.75 66.8332 18.75ZM67.2207 10.3792C65.9748 10.0042 62.1623 9.6875 62.1623 7.56667C62.1623 6.38333 63.554 5.32917 66.154 5.09583V4.16667H67.4915V5.04583C68.4665 5.06667 69.5498 5.17083 70.7582 5.42083L70.2748 6.84583C69.354 6.63333 68.329 6.43333 67.3248 6.43333L67.0248 6.4375C65.0165 6.52083 64.854 7.63333 66.2415 8.1C68.5207 8.80417 71.5207 9.31667 71.5207 11.1833C71.5207 12.6708 69.7123 13.4667 67.4915 13.6667V14.5833H66.154V13.7167C64.7873 13.7042 63.3373 13.4833 62.1457 13.0833L62.7582 11.6542C63.7748 11.9167 65.0582 12.1792 66.2082 12.1792L67.0748 12.1208C68.6123 11.9 68.9207 10.8708 67.2207 10.3792ZM20.9998 64.5833C27.0207 64.5833 32.5623 63.3292 36.4373 61.3833C37.7332 58.5083 39.4123 55.8458 41.429 53.4708C39.5498 49.125 30.8498 45.8333 20.9998 45.8333C9.8665 45.8333 0.166504 50.0292 0.166504 55.2083C0.166504 60.3875 9.8665 64.5833 20.9998 64.5833ZM21.3873 56.2125C20.1415 55.8375 16.329 55.5208 16.329 53.4C16.329 52.2167 17.7248 51.1625 20.3207 50.9292V50H21.6582V50.8792C22.6332 50.9 23.7165 51.0042 24.9248 51.2542L24.4373 52.6792C23.5207 52.4667 22.4957 52.2667 21.4915 52.2667L21.1915 52.2708C19.1832 52.3542 19.0248 53.4667 20.4082 53.9333C22.6873 54.6375 25.6873 55.15 25.6873 57.0167C25.6873 58.5042 23.879 59.3 21.6582 59.5V60.4167H20.3207V59.55C18.9498 59.5375 17.504 59.3167 16.3123 58.9167L16.9248 57.4875C17.9415 57.75 19.2248 58.0125 20.3748 58.0125L21.2415 57.9542C22.7748 57.7333 23.0873 56.7042 21.3873 56.2125ZM38.0665 91.7583C34.2373 94.2167 27.8998 95.8333 20.9998 95.8333C9.8665 95.8333 0.166504 91.6375 0.166504 86.4583V83.7417C4.9415 87.5667 13.1207 89.5833 20.9998 89.5833C26.1498 89.5833 31.4123 88.7042 35.7873 87.0375C36.4248 88.6792 37.1873 90.2583 38.0665 91.7583ZM0.166504 76.0417V73.3292C4.9415 77.15 13.1207 79.1667 20.9998 79.1667C25.329 79.1667 29.7248 78.5375 33.6165 77.3542C33.754 79.3083 34.0623 81.2125 34.5248 83.0625C30.8248 84.5083 26.0915 85.4167 20.9998 85.4167C9.8665 85.4167 0.166504 81.2208 0.166504 76.0417ZM0.166504 65.625V62.9083C4.9415 66.7333 13.1207 68.75 20.9998 68.75C25.6957 68.75 30.479 68.0167 34.6082 66.6292C34.0748 68.6833 33.7332 70.8042 33.604 72.9875C30.0457 74.2292 25.6748 75 20.9998 75C9.8665 75 0.166504 70.8042 0.166504 65.625ZM45.9998 19.7917V17.075C50.7748 20.9 58.954 22.9167 66.8332 22.9167C74.7165 22.9167 82.8915 20.9 87.6665 17.075V19.7917C87.6665 24.9708 77.9707 29.1667 66.8332 29.1667C55.6998 29.1667 45.9998 24.9708 45.9998 19.7917ZM45.9998 40.625V37.9083C48.9707 40.2875 53.2665 41.9667 57.9832 42.8958C55.229 43.6583 52.6207 44.7542 50.1998 46.1583C47.6082 44.6042 45.9998 42.7042 45.9998 40.625ZM45.9998 30.2083V27.4958C50.7748 31.3167 58.954 33.3333 66.8332 33.3333C74.7165 33.3333 82.8915 31.3167 87.6665 27.4958V30.2083C87.6665 35.3875 77.9707 39.5833 66.8332 39.5833C55.6998 39.5833 45.9998 35.3875 45.9998 30.2083Z" fill="#FFCD2E"/>
</svg>
