<svg width="50" height="50" viewBox="0 0 50 50" fill="none" xmlns="http://www.w3.org/2000/svg">
<path d="M47.2396 0H2.76042C1.23542 0 0 1.23542 0 2.76042V47.2417C0 48.7646 1.23542 50 2.76042 50H26.7083V30.6375H20.1917V23.0917H26.7083V17.5271C26.7083 11.0688 30.6521 7.55208 36.4146 7.55208C39.175 7.55208 41.5458 7.75833 42.2375 7.85V14.6L38.2417 14.6021C35.1083 14.6021 34.5021 16.0917 34.5021 18.275V23.0938H41.975L41.0021 30.6396H34.5021V50H47.2437C48.7646 50 50 48.7646 50 47.2396V2.76042C50 1.23542 48.7646 0 47.2396 0V0Z" fill="white"/>
</svg>
